<?xml version="1.0" standalone="no"?>
<!DOCTYPE svg PUBLIC "-//W3C//DTD SVG 20010904//EN"
 "http://www.w3.org/TR/2001/REC-SVG-20010904/DTD/svg10.dtd">
<svg version="1.0" xmlns="http://www.w3.org/2000/svg"
 width="757.000000pt" height="106.000000pt" viewBox="0 0 757.000000 106.000000"
 preserveAspectRatio="xMidYMid meet">

<g transform="translate(0.000000,106.000000) scale(0.100000,-0.100000)"
fill="#000000" stroke="none">
<path d="M5980 1039 c-54 -24 -96 -62 -120 -109 -26 -51 -304 -840 -298 -846
7 -7 198 -75 198 -70 0 13 291 821 299 829 27 27 31 -11 31 -334 0 -356 1
-363 56 -428 35 -42 116 -81 170 -81 91 0 188 60 220 137 8 18 66 180 129 360
64 180 120 333 126 340 6 7 15 10 20 7 5 -3 9 -146 9 -317 0 -191 4 -327 11
-352 16 -59 57 -113 108 -143 61 -36 164 -38 228 -4 79 42 91 65 246 506 80
226 148 418 152 427 5 13 -13 23 -95 51 -55 19 -103 32 -105 28 -2 -3 -68
-188 -146 -411 -78 -222 -147 -407 -153 -411 -6 -4 -14 -4 -18 0 -4 4 -8 158
-10 342 l-3 335 -27 46 c-50 84 -150 131 -246 114 -58 -9 -126 -56 -156 -107
-13 -24 -79 -195 -144 -381 -66 -186 -125 -344 -131 -350 -26 -26 -31 26 -31
341 0 351 -2 366 -58 426 -38 41 -118 76 -172 76 -25 0 -65 -10 -90 -21z"/>
<path d="M1280 970 c0 -28 2 -30 40 -30 l39 0 -13 -42 c-7 -24 -16 -53 -20
-65 -6 -18 -4 -23 11 -23 15 0 24 16 41 68 12 38 22 74 22 80 0 8 -17 12 -45
12 -33 0 -45 4 -45 15 0 8 -7 15 -15 15 -10 0 -15 -10 -15 -30z"/>
<path d="M2170 970 c0 -28 3 -30 35 -30 40 0 42 -7 20 -70 -19 -54 -19 -60 3
-60 15 0 24 17 40 74 12 41 22 77 22 80 0 3 -20 6 -45 6 -33 0 -45 4 -45 15 0
8 -7 15 -15 15 -10 0 -15 -10 -15 -30z"/>
<path d="M2850 970 c0 -28 3 -30 35 -30 40 0 42 -7 20 -70 -19 -54 -19 -60 3
-60 15 0 24 17 40 74 12 41 22 77 22 80 0 3 -20 6 -45 6 -33 0 -45 4 -45 15 0
8 -7 15 -15 15 -10 0 -15 -10 -15 -30z"/>
<path d="M3440 955 c0 -19 5 -35 10 -35 6 0 10 1 10 3 0 1 4 17 9 35 9 28 7
32 -10 32 -15 0 -19 -7 -19 -35z"/>
<path d="M3497 983 c-14 -13 -7 -63 8 -63 8 0 15 6 15 13 0 6 3 22 6 35 5 15
2 22 -8 22 -8 0 -18 -3 -21 -7z"/>
<path d="M1010 955 c0 -8 5 -15 10 -15 6 0 10 -28 10 -65 l0 -65 75 0 75 0 0
63 c0 84 -13 97 -103 97 -53 0 -67 -3 -67 -15z m128 -67 l3 -48 -40 0 -41 0 0
51 0 50 38 -3 c37 -3 37 -3 40 -50z"/>
<path d="M1206 933 c8 -47 12 -53 30 -53 10 0 14 12 14 45 0 42 -2 45 -25 45
-24 0 -26 -2 -19 -37z"/>
<path d="M1423 918 c11 -89 63 -131 135 -107 40 13 62 53 62 114 0 38 -3 45
-20 45 -17 0 -20 -7 -20 -49 0 -32 -6 -55 -16 -66 -22 -22 -73 -16 -91 11 -13
20 -12 21 12 17 34 -7 55 13 55 53 0 42 -27 47 -32 7 -2 -20 -9 -28 -23 -28
-14 0 -21 8 -23 28 -2 20 -9 27 -24 27 -19 0 -20 -4 -15 -52z"/>
<path d="M1640 955 c0 -8 5 -15 10 -15 6 0 10 -28 10 -65 0 -58 2 -65 20 -65
18 0 20 7 20 80 l0 80 -30 0 c-20 0 -30 -5 -30 -15z"/>
<path d="M1730 955 c0 -9 9 -15 24 -15 49 0 56 -8 56 -71 0 -52 2 -59 20 -59
18 0 20 7 20 60 0 47 -4 64 -20 80 -25 25 -100 29 -100 5z"/>
<path d="M1860 955 c0 -8 5 -15 10 -15 6 0 10 -13 10 -30 0 -23 4 -30 20 -30
17 0 20 7 20 45 0 43 -1 45 -30 45 -20 0 -30 -5 -30 -15z"/>
<path d="M2000 955 c0 -11 12 -15 45 -15 l45 0 0 -65 c0 -51 3 -65 15 -65 12
0 15 14 15 65 0 51 3 65 15 65 8 0 15 7 15 15 0 12 -15 15 -75 15 -60 0 -75
-3 -75 -15z"/>
<path d="M2300 955 c0 -8 4 -15 9 -15 5 0 11 -12 13 -27 2 -17 10 -29 21 -31
14 -3 17 4 17 42 0 44 -1 46 -30 46 -20 0 -30 -5 -30 -15z"/>
<path d="M2400 925 c0 -43 1 -45 30 -45 32 0 40 14 15 24 -25 9 -18 36 9 36
45 0 68 -40 46 -81 -8 -14 -21 -19 -55 -19 -33 0 -45 -4 -45 -15 0 -11 12 -15
49 -15 67 0 94 22 94 80 0 58 -27 80 -94 80 l-49 0 0 -45z"/>
<path d="M2568 938 c17 -29 18 -37 7 -68 -18 -48 -18 -60 3 -60 12 0 22 16 35
60 14 48 22 61 42 66 32 8 55 -11 55 -45 0 -33 -17 -51 -47 -51 -24 0 -34 -29
-10 -31 33 -3 54 4 75 27 28 31 28 73 1 108 -24 31 -72 35 -102 9 -18 -17 -19
-17 -28 0 -6 9 -19 17 -30 17 -21 0 -21 0 -1 -32z"/>
<path d="M2760 955 c0 -8 5 -15 10 -15 6 0 10 -28 10 -65 0 -58 2 -65 20 -65
18 0 20 7 20 80 l0 80 -30 0 c-20 0 -30 -5 -30 -15z"/>
<path d="M2990 955 c0 -10 11 -15 35 -15 39 0 55 -20 55 -69 0 -30 -1 -31 -45
-31 -33 0 -45 -4 -45 -15 0 -12 15 -15 75 -15 60 0 75 3 75 15 0 8 -7 15 -15
15 -11 0 -15 12 -15 48 0 61 -20 82 -78 82 -31 0 -42 -4 -42 -15z"/>
<path d="M3213 914 c9 -88 60 -128 133 -104 42 14 64 53 64 115 0 38 -3 45
-20 45 -17 0 -20 -7 -20 -49 0 -32 -6 -55 -16 -65 -20 -20 -68 -21 -84 -1 -15
18 -15 18 25 31 25 8 30 15 33 47 2 28 -1 37 -12 37 -9 0 -16 -11 -18 -27 -2
-20 -9 -29 -25 -31 -20 -3 -23 1 -23 27 0 25 -4 31 -21 31 -20 0 -21 -4 -16
-56z"/>
<path d="M3556 948 c3 -13 13 -38 20 -57 18 -44 18 -51 -6 -51 -11 0 -20 -7
-20 -15 0 -21 88 -20 117 0 23 16 43 70 43 118 0 20 -5 27 -20 27 -17 0 -20
-7 -20 -43 0 -47 -22 -89 -38 -72 -5 6 -17 34 -27 63 -13 40 -21 52 -36 52
-16 0 -19 -4 -13 -22z"/>
<path d="M3805 909 c14 -35 25 -64 25 -66 0 -2 -9 -3 -20 -3 -11 0 -20 -7 -20
-15 0 -11 12 -15 48 -15 72 1 102 34 102 114 0 69 -24 61 -36 -11 -12 -79 -33
-81 -59 -6 -15 45 -25 59 -42 61 l-22 3 24 -62z"/>
<path d="M3960 955 c0 -11 12 -15 45 -15 l45 0 0 -65 c0 -51 3 -65 15 -65 12
0 15 14 15 65 0 51 3 65 15 65 8 0 15 7 15 15 0 12 -15 15 -75 15 -60 0 -75
-3 -75 -15z"/>
<path d="M4139 939 c18 -29 18 -35 5 -71 -18 -52 -18 -58 5 -58 14 0 22 12 31
48 15 53 35 82 60 82 25 0 40 -21 40 -56 0 -32 -13 -44 -51 -44 -21 0 -27 -29
-6 -31 57 -5 97 28 97 81 0 25 -7 43 -23 58 -27 26 -79 29 -97 7 -7 -8 -16
-15 -21 -15 -5 0 -9 7 -9 15 0 9 -9 15 -25 15 l-25 0 19 -31z"/>
<path d="M4340 955 c0 -11 12 -15 50 -15 58 0 70 -14 70 -84 0 -34 4 -46 15
-46 24 0 21 121 -3 143 -25 23 -132 24 -132 2z"/>
<path d="M4570 955 c0 -8 4 -15 10 -15 5 0 11 -42 12 -92 3 -79 6 -93 21 -96
15 -3 17 7 17 107 l0 111 -30 0 c-20 0 -30 -5 -30 -15z"/>
<path d="M4660 955 c0 -8 5 -15 10 -15 6 0 10 -28 10 -65 0 -51 3 -65 15 -65
12 0 15 16 15 80 0 79 0 80 -25 80 -16 0 -25 -6 -25 -15z"/>
<path d="M4750 890 c0 -73 2 -80 20 -80 17 0 20 7 20 53 l1 52 22 -30 c45 -60
63 -77 81 -74 17 4 16 6 -4 32 -20 26 -21 29 -6 46 9 9 19 32 22 49 6 28 4 32
-15 32 -15 0 -21 -6 -21 -24 0 -13 -6 -29 -14 -35 -11 -10 -20 -5 -41 24 -15
19 -36 35 -46 35 -17 0 -19 -8 -19 -80z"/>
<path d="M4930 955 c0 -8 5 -15 10 -15 6 0 10 -13 10 -30 0 -20 5 -30 15 -30
11 0 15 12 15 45 0 41 -2 45 -25 45 -16 0 -25 -6 -25 -15z"/>
<path d="M5010 955 c0 -8 6 -15 14 -15 14 0 17 -11 31 -92 4 -28 11 -38 24
-38 16 0 17 6 10 48 -12 74 -11 82 11 82 11 0 20 7 20 15 0 12 -13 15 -55 15
-42 0 -55 -3 -55 -15z"/>
<path d="M5130 955 c0 -8 5 -15 10 -15 6 0 10 -28 10 -65 0 -58 2 -65 20 -65
18 0 20 7 20 80 l0 80 -30 0 c-20 0 -30 -5 -30 -15z"/>
<path d="M5220 965 c0 -4 7 -19 15 -35 13 -25 13 -33 0 -70 -19 -53 -19 -50 4
-50 15 0 23 13 35 54 18 63 36 81 71 72 53 -13 40 -96 -15 -96 -19 0 -30 -5
-30 -14 0 -43 95 -15 107 31 10 39 5 64 -20 91 -24 26 -63 29 -95 6 -20 -14
-23 -14 -28 0 -6 15 -44 23 -44 11z"/>
<path d="M4350 851 c0 -35 3 -41 21 -41 17 0 20 5 17 37 -2 27 -8 39 -20 41
-15 3 -18 -4 -18 -37z"/>
<path d="M1668 583 c-3 -76 -4 -78 -29 -81 -23 -3 -25 0 -21 28 5 35 -20 70
-50 70 -30 0 -61 -38 -56 -71 4 -25 1 -29 -19 -29 -20 0 -29 11 -48 55 -14 30
-29 55 -34 55 -20 0 -21 -21 -2 -58 11 -22 17 -42 14 -46 -13 -12 -64 -6 -69
9 -4 8 -10 15 -15 15 -13 0 -11 -44 3 -58 17 -17 73 -15 88 3 10 12 14 12 25
1 9 -9 44 -13 115 -13 94 -1 102 1 116 22 18 28 16 166 -3 172 -9 3 -13 -18
-15 -74z m-75 -37 c7 -19 -18 -40 -38 -32 -15 6 -20 28 -8 39 12 12 41 7 46
-7z"/>
<path d="M1730 560 c0 -82 3 -100 15 -100 12 0 15 18 15 100 0 82 -3 100 -15
100 -12 0 -15 -18 -15 -100z"/>
<path d="M2028 583 c-3 -75 -4 -78 -28 -81 -22 -2 -29 5 -52 52 -20 40 -32 54
-42 50 -13 -5 -13 -11 4 -45 11 -21 20 -43 20 -49 0 -16 -67 -12 -74 5 -3 8
-10 15 -16 15 -14 0 -13 -43 2 -58 17 -17 74 -15 91 3 13 13 16 13 27 0 14
-17 56 -20 64 -6 4 5 19 5 36 -2 24 -9 35 -9 51 1 13 8 25 10 32 4 15 -12 196
-12 203 -1 3 5 13 5 24 -1 68 -37 133 37 80 90 -11 11 -27 20 -35 20 -20 0
-65 -45 -65 -65 0 -10 -10 -15 -30 -15 -27 0 -30 2 -20 19 21 41 -24 91 -68
76 -24 -7 -45 -51 -37 -76 5 -15 1 -19 -19 -19 -22 0 -26 4 -26 30 0 39 -27
41 -32 3 -2 -22 -9 -29 -30 -31 l-27 -3 -3 77 c-2 49 -7 79 -15 81 -9 3 -13
-18 -15 -74z m247 -48 c0 -22 -31 -33 -47 -17 -17 17 -1 44 24 40 15 -2 23
-10 23 -23z m163 -17 c3 -14 -3 -18 -27 -18 -29 0 -41 17 -24 34 13 13 48 1
51 -16z"/>
<path d="M2650 580 c0 -72 -2 -80 -19 -80 -12 0 -23 11 -29 29 -19 55 -75 61
-102 11 -22 -41 1 -80 48 -80 42 0 10 -23 -35 -25 -52 -1 -53 -29 0 -33 31 -3
43 2 68 27 17 17 38 31 48 31 9 0 22 5 28 11 8 8 13 8 17 0 11 -18 61 -13 80
8 12 13 16 32 14 58 -4 49 -22 49 -26 0 -3 -35 -6 -38 -30 -35 -26 3 -27 5
-30 81 -2 59 -6 77 -17 77 -12 0 -15 -17 -15 -80z m-82 -52 c19 -19 14 -28
-18 -28 -18 0 -30 5 -30 13 0 28 27 36 48 15z"/>
<path d="M3280 561 c0 -84 3 -101 15 -101 13 0 15 15 13 97 -2 66 -7 98 -15
101 -10 3 -13 -21 -13 -97z"/>
<path d="M3568 588 l-3 -73 -42 -3 c-35 -3 -43 -7 -43 -23 0 -14 7 -19 25 -19
30 0 33 -15 6 -30 -28 -15 -63 -12 -90 6 -20 14 -22 22 -17 55 5 30 3 39 -8
39 -9 0 -18 -14 -22 -37 -8 -45 10 -82 49 -101 51 -25 137 11 137 58 0 26 15
33 30 15 9 -11 34 -15 96 -15 77 0 84 2 84 19 0 17 -8 20 -47 23 -40 3 -48 6
-48 23 0 15 7 20 30 21 46 1 63 14 40 31 -44 31 -112 -4 -102 -53 3 -20 0 -24
-19 -24 -22 0 -23 4 -26 77 -2 48 -7 78 -15 80 -9 3 -13 -17 -15 -69z"/>
<path d="M4180 579 c0 -78 -1 -80 -22 -77 -15 2 -24 11 -26 26 -2 12 -15 30
-28 39 -24 15 -27 15 -52 -4 -52 -39 -35 -103 27 -103 41 0 8 -23 -36 -25 -27
0 -39 -6 -41 -18 -3 -14 4 -17 38 -17 33 0 48 6 72 30 16 17 38 30 48 30 10 0
22 5 25 10 4 7 11 8 18 2 7 -5 58 -10 115 -10 78 0 106 3 117 15 20 19 22 187
3 181 -9 -3 -14 -31 -16 -81 l-3 -77 -29 0 c-28 0 -29 1 -18 26 11 23 10 29
-11 45 -26 22 -39 23 -76 9 -34 -13 -42 -36 -19 -61 18 -20 18 -21 -16 -17
l-35 3 -3 78 c-2 59 -6 77 -17 77 -12 0 -15 -17 -15 -81z m170 -43 c0 -19 -30
-29 -46 -15 -22 18 -16 29 16 29 19 0 30 -5 30 -14z m-252 -8 c19 -19 14 -28
-16 -28 -35 0 -45 9 -31 27 14 16 31 17 47 1z"/>
<path d="M4490 561 c0 -84 3 -101 15 -101 13 0 15 15 13 97 -2 66 -7 98 -15
101 -10 3 -13 -21 -13 -97z"/>
<path d="M1537 644 c-8 -8 1 -24 14 -24 5 0 9 7 9 15 0 15 -12 20 -23 9z"/>
<path d="M1577 644 c-8 -8 1 -24 14 -24 5 0 9 7 9 15 0 15 -12 20 -23 9z"/>
<path d="M2235 641 c-3 -5 -1 -12 5 -16 12 -7 30 2 30 16 0 12 -27 12 -35 0z"/>
<path d="M4755 641 c-3 -5 -1 -12 5 -16 12 -7 30 2 30 16 0 12 -27 12 -35 0z"/>
<path d="M5062 599 c2 -6 8 -10 13 -10 5 0 11 4 13 10 2 6 -4 11 -13 11 -9 0
-15 -5 -13 -11z"/>
<path d="M5102 599 c2 -6 8 -10 13 -10 5 0 11 4 13 10 2 6 -4 11 -13 11 -9 0
-15 -5 -13 -11z"/>
<path d="M4744 592 c-20 -13 -35 -52 -29 -72 6 -18 2 -20 -38 -20 -49 0 -70
16 -65 51 5 37 -20 33 -27 -4 -8 -42 7 -75 38 -82 12 -3 83 -4 157 -2 120 2
139 5 171 25 l37 22 16 -25 c17 -26 45 -32 76 -15 13 7 21 7 25 0 8 -13 52
-13 60 0 4 7 12 7 25 0 33 -18 68 -12 86 15 35 54 -18 116 -70 81 -14 -9 -29
-28 -32 -42 -5 -20 -12 -24 -33 -22 -20 2 -27 9 -29 31 -5 38 -32 36 -32 -3 0
-27 -3 -30 -32 -30 -25 0 -29 3 -20 12 21 21 13 38 -15 38 -16 1 -39 7 -53 15
-32 18 -84 19 -99 2 -14 -18 -3 -28 23 -21 12 3 35 0 51 -7 l30 -11 -30 -14
c-16 -7 -52 -13 -78 -14 -44 0 -47 1 -37 19 24 46 -34 102 -76 73z m51 -57 c0
-22 -31 -33 -47 -17 -17 17 -1 44 24 40 15 -2 23 -10 23 -23z m463 -17 c3 -14
-3 -18 -26 -18 -35 0 -45 9 -30 27 15 19 52 12 56 -9z"/>
<path d="M2912 564 c-12 -8 -22 -21 -22 -27 0 -7 -14 -20 -30 -29 -28 -16 -30
-21 -30 -78 0 -47 3 -60 15 -60 11 0 15 12 15 50 0 53 19 75 43 51 14 -14 52
-14 77 -1 13 7 21 7 25 0 8 -13 48 -13 62 1 8 8 13 8 17 0 9 -14 53 -14 61 -1
4 6 12 6 24 -2 25 -15 68 -2 76 23 9 29 -2 69 -20 69 -11 0 -13 -8 -8 -31 5
-28 4 -30 -18 -27 -16 2 -25 11 -27 26 -4 28 -26 24 -30 -6 -2 -14 -11 -22
-22 -22 -11 0 -20 8 -22 22 -4 30 -26 34 -30 6 -2 -17 -11 -24 -30 -26 -22 -3
-29 2 -34 23 -6 25 -38 55 -59 55 -6 0 -21 -7 -33 -16z m56 -36 c20 -20 14
-28 -23 -28 -24 0 -35 5 -35 14 0 24 39 33 58 14z"/>
<path d="M3900 558 c-11 -12 -20 -25 -20 -30 0 -4 -6 -8 -14 -8 -25 0 -46 -42
-46 -92 0 -41 3 -48 20 -48 17 0 20 7 20 49 0 56 11 65 51 42 56 -32 111 30
75 84 -21 31 -58 33 -86 3z m65 -38 c0 -16 -28 -25 -52 -16 -12 5 -13 9 -3 22
16 18 55 15 55 -6z"/>
<path d="M1278 530 c4 -25 1 -30 -16 -30 -13 0 -22 8 -24 22 -4 30 -26 34 -30
6 -5 -35 -44 -37 -52 -3 -11 44 -31 24 -28 -28 3 -42 2 -47 -21 -52 -13 -4
-38 -5 -53 -3 -26 3 -29 7 -34 48 -7 59 -24 58 -28 -2 -4 -61 20 -88 79 -88
33 0 47 6 69 30 15 17 34 30 42 30 8 0 19 5 25 11 8 8 13 8 17 0 11 -16 52
-13 71 5 20 21 16 78 -6 82 -12 2 -15 -4 -11 -28z"/>
<path d="M2100 425 c0 -9 5 -15 11 -13 6 2 11 8 11 13 0 5 -5 11 -11 13 -6 2
-11 -4 -11 -13z"/>
<path d="M2140 425 c0 -9 5 -15 11 -13 6 2 11 8 11 13 0 5 -5 11 -11 13 -6 2
-11 -4 -11 -13z"/>
<path d="M2725 430 c-3 -6 1 -13 10 -16 19 -8 30 0 20 15 -8 14 -22 14 -30 1z"/>
<path d="M965 291 c-8 -15 3 -31 21 -31 9 0 14 7 12 17 -4 20 -24 28 -33 14z"/>
<path d="M1795 291 c-8 -15 3 -31 21 -31 9 0 14 7 12 17 -4 20 -24 28 -33 14z"/>
<path d="M902 280 c-12 -5 -25 -18 -29 -27 -4 -10 -11 -22 -17 -26 -8 -6 -7
-10 2 -14 8 -3 12 -26 12 -64 0 -52 2 -59 20 -59 18 0 20 7 20 60 0 47 3 60
15 60 8 0 15 5 15 10 0 6 -7 10 -15 10 -22 0 -18 21 5 27 12 3 19 10 17 16 -5
15 -18 17 -45 7z"/>
<path d="M1545 280 c-61 -24 -59 -76 5 -107 60 -29 59 -48 -3 -47 -37 0 -47
-3 -45 -15 5 -23 56 -32 95 -16 30 13 34 18 31 47 -3 28 -10 36 -46 53 -54 25
-53 50 3 51 35 0 57 16 38 27 -19 11 -60 15 -78 7z"/>
<path d="M0 185 l0 -95 53 0 c40 0 58 5 70 18 21 23 22 46 3 61 -11 9 -12 18
-3 41 17 44 -11 70 -75 70 l-48 0 0 -95z m88 43 c-2 -15 -11 -24 -25 -26 -19
-3 -23 1 -23 22 0 21 5 26 26 26 21 0 25 -4 22 -22z m7 -83 c0 -14 -8 -21 -27
-23 -24 -3 -28 0 -28 23 0 23 4 26 28 23 19 -2 27 -9 27 -23z"/>
<path d="M160 185 c0 -88 1 -95 20 -95 19 0 20 7 20 95 0 88 -1 95 -20 95 -19
0 -20 -7 -20 -95z"/>
<path d="M1200 185 c0 -78 3 -95 15 -95 12 0 15 17 15 95 0 78 -3 95 -15 95
-12 0 -15 -17 -15 -95z"/>
<path d="M1380 251 c0 -28 -1 -29 -30 -18 -43 16 -84 -15 -88 -67 -5 -59 17
-75 94 -74 l64 1 0 93 c0 87 -1 94 -20 94 -15 0 -20 -7 -20 -29z m-18 -58 c35
-31 13 -78 -34 -71 -27 4 -37 50 -17 74 15 18 28 18 51 -3z"/>
<path d="M2560 185 c0 -88 1 -95 20 -95 18 0 20 7 20 58 l1 57 22 -37 c12 -21
29 -38 38 -38 8 0 26 19 40 43 l24 42 3 -62 c2 -47 7 -63 17 -63 12 0 15 19
15 95 0 84 -2 95 -17 95 -11 0 -30 -22 -49 -57 l-31 -56 -34 56 c-21 35 -41
57 -51 57 -16 0 -18 -11 -18 -95z"/>
<path d="M3828 203 l-3 -78 -37 -3 c-42 -4 -54 -31 -15 -33 77 -4 89 10 95
110 4 77 4 81 -16 81 -19 0 -21 -7 -24 -77z"/>
<path d="M4660 185 c0 -88 1 -95 20 -95 19 0 20 7 20 95 0 88 -1 95 -20 95
-19 0 -20 -7 -20 -95z"/>
<path d="M248 210 c-24 -25 -29 -36 -23 -58 10 -42 38 -64 79 -64 50 0 76 25
76 73 0 29 -6 42 -26 58 -37 29 -70 26 -106 -9z m84 -17 c35 -31 16 -73 -33
-73 -39 0 -53 45 -23 74 20 20 33 20 56 -1z"/>
<path d="M440 228 c-53 -28 -52 -110 2 -132 58 -25 118 8 118 65 0 57 -67 94
-120 67z m69 -32 c7 -8 11 -27 9 -43 -3 -25 -7 -28 -38 -28 -31 0 -35 3 -38
28 -4 32 13 57 38 57 10 0 23 -6 29 -14z"/>
<path d="M642 224 c-12 -8 -22 -10 -22 -5 0 6 -9 11 -20 11 -18 0 -20 -7 -20
-70 0 -63 2 -70 20 -70 17 0 20 7 20 43 0 31 6 49 20 62 30 27 50 5 50 -56 0
-37 4 -49 15 -49 11 0 15 11 15 40 0 27 7 47 21 61 31 31 44 19 47 -44 3 -49
6 -57 22 -57 17 0 20 7 20 55 0 79 -39 115 -85 81 -17 -12 -22 -12 -39 0 -26
18 -36 18 -64 -2z"/>
<path d="M1056 219 c-20 -16 -26 -29 -26 -58 0 -57 45 -89 105 -73 42 12 33
27 -16 28 -24 0 -44 6 -49 15 -8 11 1 15 45 17 49 3 55 5 55 25 0 28 -9 41
-37 56 -31 16 -47 14 -77 -10z m74 -29 c10 -18 8 -20 -25 -20 -22 0 -35 5 -35
13 0 33 44 37 60 7z"/>
<path d="M1690 227 c-30 -15 -45 -54 -36 -91 8 -31 54 -55 92 -48 38 7 29 30
-13 34 -33 3 -38 7 -41 31 -5 39 15 60 50 53 20 -4 28 -1 28 8 0 26 -41 33
-80 13z"/>
<path d="M1886 219 c-20 -16 -26 -29 -26 -58 0 -57 45 -89 105 -73 42 12 33
27 -16 28 -24 0 -44 6 -49 15 -8 11 1 15 45 17 49 3 55 5 55 25 0 28 -9 41
-37 56 -31 16 -47 14 -77 -10z m74 -29 c10 -18 8 -20 -25 -20 -22 0 -35 5 -35
13 0 33 44 37 60 7z"/>
<path d="M2082 224 c-12 -8 -22 -10 -22 -5 0 6 -7 11 -15 11 -12 0 -15 -14
-15 -70 0 -56 3 -70 15 -70 11 0 15 11 15 40 0 27 7 47 21 61 31 31 44 19 47
-44 3 -49 6 -57 22 -57 18 0 20 7 20 58 0 83 -35 113 -88 76z"/>
<path d="M2233 228 c-12 -6 -27 -23 -34 -39 -25 -61 35 -122 97 -99 33 13 21
30 -21 30 -32 0 -45 13 -45 45 0 24 31 47 56 41 26 -7 43 12 23 25 -18 11 -49
10 -76 -3z"/>
<path d="M2355 215 c-52 -51 -20 -128 52 -128 44 0 63 8 63 25 0 6 -12 8 -31
4 -31 -6 -69 7 -69 24 0 6 25 10 56 10 l56 0 -6 28 c-15 60 -79 80 -121 37z
m73 -17 c20 -20 14 -28 -23 -28 -24 0 -35 5 -35 14 0 24 39 33 58 14z"/>
<path d="M2979 221 c-20 -16 -22 -22 -12 -43 7 -16 23 -27 42 -31 19 -4 31
-13 31 -23 0 -13 -7 -15 -41 -9 -33 6 -40 4 -37 -6 7 -22 98 -19 112 4 15 24
-3 49 -43 60 -41 10 -35 33 8 31 33 -2 44 19 15 30 -27 11 -51 7 -75 -13z"/>
<path d="M3132 224 c-50 -35 -46 -114 6 -132 36 -12 92 -4 92 15 0 10 -8 12
-33 8 -26 -5 -39 -2 -52 12 -18 17 -17 18 38 21 53 3 57 5 57 27 0 26 -42 65
-69 65 -9 0 -27 -7 -39 -16z m66 -36 c3 -15 -4 -18 -32 -18 -38 0 -44 8 -24
28 17 17 52 11 56 -10z"/>
<path d="M3492 224 c-12 -8 -22 -10 -22 -5 0 6 -7 11 -15 11 -12 0 -15 -14
-15 -70 0 -56 3 -70 15 -70 11 0 15 11 15 40 0 27 7 47 21 61 31 31 44 19 47
-44 3 -49 6 -57 22 -57 17 0 20 7 20 43 0 31 6 49 20 62 30 27 50 5 50 -56 0
-37 4 -49 15 -49 24 0 21 112 -3 133 -23 21 -42 21 -67 3 -17 -12 -22 -12 -39
0 -26 18 -36 18 -64 -2z"/>
<path d="M3933 230 c-44 -18 -57 -81 -25 -120 26 -33 122 -31 122 1 0 6 -12 8
-29 4 -30 -6 -71 8 -71 25 0 6 25 10 55 10 49 0 55 2 55 20 0 26 -43 70 -67
69 -10 0 -28 -4 -40 -9z m55 -32 c20 -20 14 -28 -23 -28 -19 0 -35 4 -35 8 0
12 22 32 35 32 6 0 16 -5 23 -12z"/>
<path d="M4122 231 c-7 -4 -24 -6 -38 -3 -24 4 -24 3 -24 -67 0 -64 2 -71 20
-71 17 0 20 7 20 43 0 44 21 77 49 77 14 0 10 22 -5 27 -5 1 -15 -1 -22 -6z"/>
<path d="M4362 224 c-40 -28 -26 -64 31 -78 41 -10 28 -31 -17 -29 -45 3 -46
-20 -2 -25 43 -5 74 6 81 29 9 26 -8 45 -45 53 -19 3 -30 12 -30 22 0 13 7 16
35 11 25 -4 35 -2 35 8 0 27 -54 33 -88 9z"/>
<path d="M4503 225 c-39 -27 -38 -101 1 -127 17 -12 71 -9 84 4 9 9 12 9 12 0
0 -7 7 -12 15 -12 12 0 15 14 15 70 0 69 0 69 -27 69 -16 -1 -39 2 -53 6 -16
4 -33 0 -47 -10z m77 -35 c27 -27 13 -64 -25 -68 -30 -4 -45 11 -45 44 0 43
38 56 70 24z"/>
<path d="M4762 224 c-35 -25 -45 -50 -32 -89 7 -22 20 -37 38 -43 36 -12 92
-4 92 15 0 10 -8 12 -33 8 -26 -5 -39 -2 -52 12 -18 17 -17 18 38 21 53 3 57
5 57 27 0 26 -42 65 -69 65 -9 0 -27 -7 -39 -16z m66 -36 c3 -15 -4 -18 -32
-18 -38 0 -44 8 -24 28 17 17 52 11 56 -10z"/>
<path d="M4952 224 c-12 -8 -22 -10 -22 -5 0 6 -9 11 -20 11 -18 0 -20 -7 -20
-70 0 -63 2 -70 20 -70 16 0 20 7 20 38 0 40 23 82 44 82 18 0 26 -23 26 -76
0 -37 3 -44 20 -44 17 0 20 7 20 50 0 39 4 51 20 60 31 17 40 4 40 -56 0 -47
2 -54 20 -54 18 0 20 7 20 60 0 53 -3 61 -26 77 -24 15 -29 16 -54 1 -23 -13
-29 -13 -45 -2 -24 18 -36 18 -63 -2z"/>
<path d="M970 160 c0 -56 3 -70 15 -70 12 0 15 14 15 70 0 56 -3 70 -15 70
-12 0 -15 -14 -15 -70z"/>
<path d="M1800 160 c0 -56 3 -70 15 -70 12 0 15 14 15 70 0 56 -3 70 -15 70
-12 0 -15 -14 -15 -70z"/>
<path d="M2800 172 c0 -32 5 -63 12 -70 15 -15 61 -15 76 0 9 9 12 9 12 0 0
-7 9 -12 20 -12 18 0 20 7 20 70 0 63 -2 70 -19 70 -16 0 -20 -8 -23 -46 -3
-50 -22 -72 -52 -61 -12 5 -16 19 -16 57 0 38 -4 50 -15 50 -12 0 -15 -13 -15
-58z"/>
<path d="M3260 185 c0 -66 17 -95 55 -95 17 0 36 5 43 12 9 9 12 9 12 0 0 -7
9 -12 20 -12 18 0 20 7 20 70 0 63 -2 70 -19 70 -16 0 -20 -8 -23 -46 -3 -50
-22 -72 -52 -61 -12 5 -16 19 -16 57 0 43 -3 50 -20 50 -17 0 -20 -7 -20 -45z"/>
<path d="M4170 186 c0 -71 14 -96 53 -96 18 0 38 5 45 12 9 9 12 9 12 0 0 -7
7 -12 15 -12 12 0 15 14 15 70 0 56 -3 70 -15 70 -11 0 -15 -11 -15 -38 0 -46
-19 -76 -46 -70 -15 2 -20 13 -22 56 -3 44 -6 52 -23 52 -16 0 -19 -7 -19 -44z"/>
</g>
</svg>
